<svg width="16" height="18" viewBox="0 0 16 18" fill="none" xmlns="http://www.w3.org/2000/svg">
  <rect width="16" height="18" rx="4" fill="#39DB4A" />
  <path
    d="M10.7173 4C10.9433 4 11.1104 4.0104 11.2186 4.03121C11.3365 4.04162 11.4643 4.08844 11.6019 4.17167C11.7493 4.25491 11.8526 4.39537 11.9115 4.59306C11.9705 4.79074 12 5.05605 12 5.389C12 5.72194 11.9705 5.98726 11.9115 6.18494C11.8526 6.38263 11.7493 6.52309 11.6019 6.60632C11.4545 6.67915 11.3218 6.72597 11.2038 6.74678C11.0957 6.75719 10.9237 6.76239 10.6878 6.76239H6.17606V8.33867H9.08066C9.31657 8.33867 9.48858 8.34907 9.5967 8.36988C9.71466 8.38029 9.84735 8.42711 9.9948 8.51034C10.2504 8.66641 10.3781 9.07739 10.3781 9.74327C10.3781 10.4716 10.1914 10.9034 9.81787 11.0386C9.6606 11.0907 9.40994 11.1167 9.06591 11.1167H6.17606V14.0663C6.17606 14.316 6.16623 14.4981 6.14657 14.6126C6.13674 14.727 6.13031 14.8556 6.01215 14.9807C5.97113 15.0241 5.47842 14.9807 5.29748 14.9807C4.60942 14.9807 4.20642 14.783 4.08846 14.3876C4.02949 14.2212 4 13.9559 4 13.5917V5.83241C4 5.30178 4.09338 4.94283 4.28014 4.75555C4.4669 4.55786 4.82076 4.45902 5.34172 4.45902L10.7173 4Z"
    fill="white" />
</svg>