<svg width="24" height="24" viewBox="0 0 24 24" fill="none" xmlns="http://www.w3.org/2000/svg">
<path d="M15.175 22V20.991C15.1792 20.7271 15.2869 20.4753 15.4748 20.29C15.6628 20.1046 15.916 20.0005 16.18 20H16.255C17.687 19.988 18.917 18.994 19.209 17.612L19.219 17.56L19.739 15L20.679 14.536C21.184 14.288 21.435 14.163 21.489 13.936C21.544 13.708 21.375 13.486 21.038 13.041L19.13 10.533C18.94 10.283 18.845 10.159 18.795 10.027C18.745 9.895 18.728 9.707 18.697 9.334C18.353 5.227 14.865 2 10.612 2C6.132 2 2.5 5.582 2.5 10C2.5 12.75 3.907 15.175 6.05 16.615M6.05 16.615V22M6.05 16.615C6.67569 17.038 7.35813 17.3703 8.077 17.602" stroke="black" stroke-width="1.5" stroke-linecap="round" stroke-linejoin="round"/>
<path d="M14 9L14.92 9.793C15.307 10.126 15.5 10.293 15.5 10.5C15.5 10.707 15.307 10.874 14.92 11.207L14 12M7 9L6.08 9.793C5.693 10.126 5.5 10.293 5.5 10.5C5.5 10.707 5.693 10.874 6.08 11.207L7 12M11.5 8L9.5 13" stroke="black" stroke-width="1.5" stroke-linecap="round" stroke-linejoin="round"/>
</svg>
