<svg width="18" height="18" viewBox="0 0 18 18" fill="none" xmlns="http://www.w3.org/2000/svg">
<path fill-rule="evenodd" clip-rule="evenodd" d="M9.79499 12.045C9.58405 12.2557 9.29811 12.374 8.99999 12.374C8.70186 12.374 8.41592 12.2557 8.20499 12.045L3.96149 7.803C3.75054 7.59195 3.63207 7.30575 3.63214 7.00736C3.63221 6.70896 3.75082 6.42282 3.96186 6.21187C4.17291 6.00093 4.45911 5.88246 4.7575 5.88253C5.0559 5.8826 5.34204 6.0012 5.55299 6.21225L8.99999 9.65925L12.447 6.21225C12.6591 6.00722 12.9432 5.89369 13.2382 5.89611C13.5331 5.89854 13.8154 6.01672 14.024 6.2252C14.2327 6.43369 14.3512 6.7158 14.3539 7.01077C14.3566 7.30574 14.2433 7.58997 14.0385 7.80225L9.79574 12.0457L9.79499 12.045Z" fill="#39DB4A"/>
</svg>
