<svg width="114" height="41" viewBox="0 0 114 41" fill="none" xmlns="http://www.w3.org/2000/svg">
<rect width="34" height="41" rx="8" fill="#39DB4A"/>
<path d="M58.6073 9.08194C61.3699 9.08194 57.5553 10.3663 61.0553 13.8021C63.0899 15.7994 64.1073 18.2821 64.1073 21.2501C64.1073 24.1994 63.1366 26.7194 61.1953 28.8101C59.2539 30.8821 56.8646 31.9181 54.0273 31.9181C51.1899 31.9181 48.7726 30.8914 46.7753 28.8381C44.7966 26.7847 43.8073 24.3394 43.8073 21.5021C43.8073 19.9527 44.0873 18.5061 44.6473 17.1621C45.2073 15.7994 45.9539 14.6607 46.8873 13.7461C47.8206 12.8314 48.8939 12.1127 50.1073 11.5901C51.3206 11.0674 57.3193 9.08194 58.6073 9.08194ZM48.7633 21.3621C48.7633 23.0234 49.2953 24.3767 50.3593 25.4221C51.4419 26.4487 52.6459 26.9621 53.9713 26.9621C55.2966 26.9621 56.4913 26.4581 57.5553 25.4501C58.6193 24.4421 59.1513 23.0887 59.1513 21.3901C59.1513 19.6914 58.6099 18.3287 57.5273 17.3021C56.4633 16.2754 55.2686 15.7621 53.9433 15.7621C52.6179 15.7621 51.4233 16.2847 50.3593 17.3301C49.2953 18.3567 48.7633 19.7007 48.7633 21.3621Z" fill="black"/>
<path d="M76.1302 10.8061C78.8929 10.8061 81.2916 11.8047 83.3262 13.8021C85.3609 15.7994 86.3782 18.2821 86.3782 21.2501C86.3782 24.1994 85.4076 26.7194 83.4662 28.8101C81.5249 30.8821 79.1356 31.9181 76.2982 31.9181C73.4609 31.9181 71.0436 30.8914 69.0462 28.8381C67.0676 26.7847 66.0782 24.3394 66.0782 21.5021C66.0782 19.9527 66.3582 18.5061 66.9182 17.1621C67.4782 15.7994 68.2249 14.6607 69.1582 13.7461C70.0916 12.8314 71.1649 12.1127 72.3782 11.5901C73.5916 11.0674 74.8422 10.8061 76.1302 10.8061ZM71.0342 21.3621C71.0342 23.0234 71.5662 24.3767 72.6302 25.4221C73.7129 26.4487 74.9169 26.9621 76.2422 26.9621C77.5676 26.9621 78.7622 26.4581 79.8262 25.4501C80.8902 24.4421 81.4222 23.0887 81.4222 21.3901C81.4222 19.6914 80.8809 18.3287 79.7982 17.3021C78.7342 16.2754 77.5396 15.7621 76.2142 15.7621C74.8889 15.7621 73.6942 16.2847 72.6302 17.3301C71.5662 18.3567 71.0342 19.7007 71.0342 21.3621Z" fill="black"/>
<path d="M91.2612 11.0301L96.4412 11.0581C99.1478 11.0581 101.528 12.0381 103.581 13.9981C105.634 15.9394 106.661 18.3381 106.661 21.1941C106.661 24.0314 105.653 26.4674 103.637 28.5021C101.64 30.5367 99.2132 31.5541 96.3572 31.5541H91.2332C90.0945 31.5541 89.3852 31.3207 89.1052 30.8541C88.8812 30.4621 88.7692 29.8647 88.7692 29.0621V13.4941C88.7692 13.0461 88.7785 12.7194 88.7972 12.5141C88.8345 12.3087 88.9278 12.0661 89.0772 11.7861C89.3385 11.2821 90.0665 11.0301 91.2612 11.0301ZM96.4412 26.5981C97.7852 26.5981 98.9985 26.1034 100.081 25.1141C101.164 24.1061 101.705 22.8461 101.705 21.3341C101.705 19.8221 101.173 18.5621 100.109 17.5541C99.0638 16.5274 97.8318 16.0141 96.4132 16.0141H93.7252V26.5981H96.4412Z" fill="black"/>
<path d="M109.044 13.5221C109.044 13.0927 109.053 12.7754 109.072 12.5701C109.109 12.3461 109.203 12.0941 109.352 11.8141C109.613 11.3101 110.341 11.0581 111.536 11.0581C112.843 11.0581 113.617 11.4034 113.86 12.0941C113.953 12.4114 114 12.8967 114 13.5501V29.1181C114 29.5661 113.981 29.8927 113.944 30.0981C113.925 30.3034 113.841 30.5461 113.692 30.8261C113.431 31.3301 112.703 31.5821 111.508 31.5821C110.201 31.5821 109.436 31.2274 109.212 30.5181C109.1 30.2194 109.044 29.7434 109.044 29.0901V13.5221Z" fill="black"/>
<path d="M23.85 8.07812C24.3713 8.07812 24.7567 8.10079 25.006 8.14613C25.278 8.16879 25.5727 8.27079 25.89 8.45212C26.23 8.63346 26.468 8.93946 26.604 9.37012C26.74 9.80079 26.808 10.3788 26.808 11.1041C26.808 11.8295 26.74 12.4075 26.604 12.8381C26.468 13.2688 26.23 13.5748 25.89 13.7561C25.55 13.9148 25.244 14.0168 24.972 14.0621C24.7227 14.0848 24.326 14.0961 23.782 14.0961H13.378V17.5301H20.076C20.62 17.5301 21.0167 17.5528 21.266 17.5981C21.538 17.6208 21.844 17.7228 22.184 17.9041C22.7733 18.2441 23.068 19.1395 23.068 20.5901C23.068 22.1768 22.6373 23.1175 21.776 23.4121C21.4133 23.5255 20.8353 23.5821 20.042 23.5821H13.378V30.0081C13.378 30.5521 13.3553 30.9488 13.31 31.1981C13.2873 31.4475 13.2725 31.7277 13 32.0001C12.9054 32.0947 11.7692 32.0001 11.352 32.0001C9.76532 32.0001 8.83599 31.5695 8.56399 30.7081C8.42799 30.3455 8.35999 29.7675 8.35999 28.9741V12.0701C8.35999 10.9141 8.57532 10.1321 9.00599 9.72412C9.43665 9.29346 10.2527 9.07812 11.454 9.07812L23.85 8.07812Z" fill="white"/>
</svg>
