<svg width="64" height="64" viewBox="0 0 64 64" fill="none" xmlns="http://www.w3.org/2000/svg">
<g clip-path="url(#clip0_9_371)">
<path d="M61.8503 30.934C60.4334 29.0419 58.4202 27.6825 56.1356 27.0754C57.2491 23.8385 58.0719 20.5089 58.5943 17.126C58.7649 15.8963 58.6479 14.6438 58.2522 13.4671C57.8566 12.2903 57.1932 11.2215 56.3144 10.3446C55.4355 9.46781 54.365 8.80696 53.1874 8.41411C52.0097 8.02125 50.7569 7.90712 49.5276 8.0807C49.1916 8.12603 48.1943 8.2727 46.8316 8.5367C47.6754 6.66858 48.0751 4.63047 47.9996 2.58203C47.9884 2.23184 47.9083 1.88729 47.764 1.56804C47.6196 1.24879 47.4138 0.961108 47.1582 0.721409C46.9027 0.48171 46.6024 0.294692 46.2746 0.171032C45.9468 0.047373 45.5978 -0.0105059 45.2476 0.000700194C44.8974 0.0119063 44.5529 0.0919781 44.2336 0.236344C43.9144 0.380709 43.6267 0.586542 43.387 0.842089C43.1473 1.09764 42.9603 1.39789 42.8366 1.72572C42.7129 2.05354 42.6551 2.40251 42.6663 2.7527C42.7117 4.04088 42.4475 5.32116 41.8956 6.48603C41.5099 5.44512 40.9598 4.47277 40.2663 3.60603C39.0874 2.26443 37.5911 1.23977 35.914 0.625776C34.2369 0.0117815 32.4327 -0.171956 30.6663 0.0913669C28.7294 0.246836 26.8781 0.95589 25.3329 2.13403C23.5861 0.819883 21.4728 0.0834472 19.2876 0.0273669C16.5148 -0.241379 13.7484 0.599553 11.5943 2.36603C10.5005 3.33982 9.61735 4.52699 8.99918 5.85458C8.38102 7.18218 8.04085 8.62216 7.99959 10.086C7.92642 12.4301 8.60889 14.7355 9.94626 16.662C8.31933 18.057 7.05641 19.827 6.26659 21.8192C5.47677 23.8114 5.18378 25.9659 5.41293 28.0967C3.304 29.2719 1.66051 31.1331 0.75535 33.3713C-0.149809 35.6094 -0.262169 38.0899 0.436926 40.4007C2.26362 46.7567 5.66354 52.5495 10.3223 57.2434C14.7916 61.6013 20.7946 64.0282 27.0369 64.0007H36.9623C43.2038 64.0287 49.2062 61.6017 53.6743 57.2434C58.3347 52.5504 61.7357 46.7574 63.5623 40.4007C64.0384 38.7989 64.1315 37.1077 63.8341 35.4634C63.5367 33.8191 62.8572 32.2676 61.8503 30.934ZM50.2689 13.3607C50.6816 13.305 51.1016 13.3455 51.496 13.479C51.8905 13.6125 52.2487 13.8353 52.5428 14.1302C52.8369 14.425 53.0588 14.7838 53.1912 15.1786C53.3237 15.5734 53.363 15.9935 53.3063 16.406C52.747 19.9079 51.8403 23.3453 50.5996 26.6674H43.7703L47.2183 23.2194C47.704 22.7164 47.9728 22.0428 47.9667 21.3436C47.9607 20.6444 47.6802 19.9756 47.1858 19.4812C46.6914 18.9868 46.0225 18.7063 45.3233 18.7002C44.6241 18.6942 43.9505 18.9629 43.4476 19.4487L36.2289 26.6674H32.0983C31.9035 25.2648 32.0372 23.8362 32.4889 22.4942C32.9405 21.1522 33.6978 19.9334 34.7009 18.934C35.8396 17.7847 40.2049 14.6674 50.2689 13.3607ZM13.3329 10.2647C13.349 9.53056 13.5145 8.80739 13.8194 8.13937C14.1243 7.47134 14.5621 6.87248 15.1063 6.37937C16.2065 5.56615 17.5732 5.19851 18.9329 5.35003C19.5897 5.32303 20.2447 5.43523 20.855 5.67927C21.4654 5.92331 22.0172 6.29367 22.4743 6.76603C22.8341 7.16807 23.2747 7.48965 23.7673 7.70976C24.2599 7.92987 24.7934 8.04355 25.3329 8.04337V8.04337C25.8712 8.04071 26.4029 7.92491 26.8936 7.70347C27.3842 7.48204 27.8228 7.15993 28.1809 6.75803C28.5786 6.33732 29.0559 5.99976 29.5851 5.76493C30.1143 5.53009 30.6848 5.40267 31.2636 5.39003C32.1451 5.23302 33.0517 5.29699 33.9024 5.57621C34.7531 5.85543 35.5213 6.34119 36.1383 6.99003C36.9478 8.02642 37.3703 9.31281 37.3329 10.6274C37.3329 10.8007 37.3329 11.1794 37.3329 11.1794C33.7929 12.4541 30.7689 14.8551 28.7249 18.014C27.0411 16.0206 24.8006 14.5751 22.2904 13.8625C19.7801 13.1499 17.1143 13.2027 14.6343 14.014C13.7493 12.9696 13.2853 11.6328 13.3329 10.2647V10.2647ZM10.6663 26.6674C10.6663 24.5456 11.5091 22.5108 13.0094 21.0105C14.5097 19.5102 16.5445 18.6674 18.6663 18.6674C20.788 18.6674 22.8228 19.5102 24.3231 21.0105C25.8234 22.5108 26.6663 24.5456 26.6663 26.6674H10.6663ZM58.4423 38.9047C56.849 44.3905 53.9165 49.3939 49.9089 53.4647C46.4438 56.8314 41.7935 58.7001 36.9623 58.6674H27.0369C22.2043 58.699 17.5528 56.8305 14.0849 53.4647C10.0772 49.3941 7.1447 44.3905 5.55159 38.9047C5.31253 38.0973 5.26616 37.2452 5.41621 36.4166C5.56627 35.5881 5.90856 34.8063 6.41559 34.134C6.90756 33.4704 7.54853 32.9316 8.28684 32.5611C9.02515 32.1906 9.84018 31.9986 10.6663 32.0007H53.3329C54.1617 31.9961 54.9799 32.1868 55.7212 32.5575C56.4625 32.9281 57.106 33.4682 57.5996 34.134C58.103 34.8081 58.4415 35.5908 58.5878 36.4192C58.7342 37.2477 58.6843 38.099 58.4423 38.9047V38.9047Z" fill="#5FE26C"/>
</g>
<defs>
<clipPath id="clip0_9_371">
<rect width="64" height="64" fill="white"/>
</clipPath>
</defs>
</svg>
