<svg width="16" height="16" viewBox="0 0 16 16" fill="none" xmlns="http://www.w3.org/2000/svg">
<g clip-path="url(#clip0_6_136)">
<path d="M4.56803 15.6249C4.05923 15.6227 3.56422 15.4593 3.15403 15.1583C2.73484 14.8634 2.42204 14.441 2.26216 13.9541C2.10229 13.4671 2.10388 12.9416 2.2667 12.4556L3.0467 10.0429L0.993363 8.54159C0.581658 8.24079 0.275642 7.81748 0.119098 7.33222C-0.0374467 6.84697 -0.0364974 6.32463 0.12181 5.83994C0.280117 5.35526 0.587669 4.93306 1.00046 4.63376C1.41326 4.33446 1.91015 4.17339 2.42003 4.17359H4.93336L5.6967 1.79359C5.85336 1.30622 6.16066 0.881141 6.57435 0.57958C6.98804 0.27802 7.48676 0.11554 7.9987 0.11554C8.51063 0.11554 9.00936 0.27802 9.42304 0.57958C9.83673 0.881141 10.144 1.30622 10.3007 1.79359V1.79359L11.0667 4.17359H13.58C14.0899 4.17353 14.5866 4.3347 14.9993 4.63405C15.412 4.93341 15.7195 5.3556 15.8777 5.84026C16.0359 6.32491 16.0368 6.84719 15.8802 7.33238C15.7237 7.81758 15.4177 8.24083 15.006 8.54159L12.9534 10.0429L13.7334 12.4556C13.8906 12.9423 13.8895 13.4663 13.7301 13.9523C13.5707 14.4382 13.2612 14.8611 12.8463 15.1601C12.4313 15.4591 11.9322 15.6188 11.4208 15.6162C10.9093 15.6136 10.4119 15.4488 10 15.1456L8.00003 13.6749L6.00003 15.1463C5.5862 15.4549 5.08428 15.6227 4.56803 15.6249V15.6249ZM2.42003 6.17359C2.33203 6.17358 2.24629 6.20139 2.17504 6.25304C2.1038 6.30469 2.0507 6.37753 2.02334 6.46117C1.99598 6.5448 1.99575 6.63494 2.0227 6.71871C2.04964 6.80248 2.10238 6.87559 2.17336 6.92759L4.8107 8.85493C4.98052 8.9791 5.10686 9.15367 5.17173 9.35379C5.2366 9.55392 5.23671 9.76941 5.17203 9.96959L4.17203 13.0696C4.14428 13.1537 4.144 13.2444 4.17122 13.3287C4.19844 13.4129 4.25176 13.4864 4.32346 13.5383C4.39516 13.5903 4.48153 13.6181 4.57008 13.6177C4.65863 13.6173 4.74476 13.5888 4.81603 13.5363L7.4087 11.6289C7.58045 11.5025 7.78812 11.4344 8.00136 11.4344C8.21461 11.4344 8.42227 11.5025 8.59403 11.6289L11.1867 13.5356C11.2579 13.5886 11.3441 13.6176 11.4329 13.6182C11.5217 13.6188 11.6083 13.591 11.6802 13.5389C11.7521 13.4868 11.8054 13.4131 11.8325 13.3286C11.8596 13.2441 11.8589 13.1531 11.8307 13.0689L10.8307 9.96893C10.766 9.76874 10.7661 9.55325 10.831 9.35313C10.8959 9.153 11.0222 8.97843 11.192 8.85426L13.8287 6.92693C13.8996 6.87496 13.9523 6.80191 13.9793 6.71821C14.0063 6.6345 14.0061 6.54442 13.9788 6.46082C13.9515 6.37721 13.8986 6.30436 13.8274 6.25266C13.7563 6.20097 13.6706 6.17306 13.5827 6.17293H10.3334C10.1216 6.17288 9.91525 6.10558 9.74416 5.98073C9.57307 5.85589 9.44603 5.67995 9.38136 5.47826L8.40003 2.40426C8.373 2.32013 8.31996 2.24674 8.24856 2.19468C8.17715 2.14262 8.09106 2.11457 8.0027 2.11457C7.91433 2.11457 7.82824 2.14262 7.75683 2.19468C7.68543 2.24674 7.63239 2.32013 7.60536 2.40426L6.6167 5.47893C6.55213 5.68029 6.4254 5.856 6.25471 5.98081C6.08402 6.10563 5.87815 6.17312 5.6667 6.17359H2.42003Z" fill="#B0B4B7"/>
</g>
<defs>
<clipPath id="clip0_6_136">
<rect width="16" height="16" fill="white"/>
</clipPath>
</defs>
</svg>
