<svg width="16" height="16" viewBox="0 0 16 16" fill="none" xmlns="http://www.w3.org/2000/svg">
<g clip-path="url(#clip0_6_146)">
<path d="M0.884551 8.2669L3.25788 10.0002L2.35655 12.7916C2.21089 13.2245 2.20905 13.6929 2.35129 14.127C2.49353 14.561 2.77225 14.9375 3.14588 15.2002C3.51312 15.4714 3.95815 15.6167 4.41465 15.6144C4.87116 15.6121 5.31471 15.4624 5.67922 15.1876L7.99989 13.4796L10.3212 15.1856C10.6878 15.4552 11.1304 15.6017 11.5855 15.6039C12.0405 15.6061 12.4846 15.464 12.8537 15.1979C13.2229 14.9319 13.4982 14.5556 13.6401 14.1232C13.7819 13.6908 13.783 13.2246 13.6432 12.7916L12.7419 10.0002L15.1152 8.2669C15.4813 7.99924 15.7535 7.62273 15.8928 7.19116C16.0321 6.75959 16.0315 6.29502 15.891 5.86383C15.7505 5.43263 15.4774 5.05685 15.1106 4.79017C14.7438 4.52349 14.3021 4.37955 13.8486 4.3789H10.9332L10.0486 1.62157C9.90943 1.18754 9.63606 0.80891 9.26786 0.540278C8.89967 0.271645 8.45566 0.126892 7.99989 0.126892C7.54411 0.126892 7.10011 0.271645 6.73191 0.540278C6.36371 0.80891 6.09034 1.18754 5.95122 1.62157L5.06655 4.3789H2.15388C1.70038 4.37955 1.25868 4.52349 0.891871 4.79017C0.525063 5.05685 0.251912 5.43263 0.111432 5.86383C-0.0290475 6.29502 -0.0296693 6.75959 0.109656 7.19116C0.24898 7.62273 0.521125 7.99924 0.887218 8.2669H0.884551Z" fill="#FFE605"/>
</g>
<defs>
<clipPath id="clip0_6_146">
<rect width="16" height="16" fill="white"/>
</clipPath>
</defs>
</svg>
