<svg width="30" height="30" viewBox="0 0 30 30" fill="none" xmlns="http://www.w3.org/2000/svg">
<path d="M24.8625 9.17486C24.75 9.58736 24.25 10.6249 23.4 11.6124C22.8375 22.4624 12.3125 25.9874 5.1 22.3499C4.1125 21.0374 8.6625 21.5749 10.325 19.0624C4.0375 15.8499 4.5375 7.26236 5.8 7.61236C8.7625 11.5999 13.5375 11.9624 14.3125 11.5999C14.3125 10.6874 13.925 8.69986 16.075 7.03736C17.3125 6.14986 19.9 5.36236 22.2375 7.89986C22.6375 8.16236 23.2125 8.27486 24.075 8.08736C24.5875 7.82486 25.2625 7.99986 24.9125 8.91236L24.8625 9.17486Z" stroke="#272727" stroke-width="2" stroke-linecap="round" stroke-linejoin="round"/>
</svg>
